<svg width="320" height="320" viewBox="0 0 320 320" fill="none" xmlns="http://www.w3.org/2000/svg">
  <defs>
    <linearGradient id="bg" x1="36" y1="22" x2="278" y2="298" gradientUnits="userSpaceOnUse">
      <stop stop-color="#162032"/>
      <stop offset="0.5" stop-color="#0F1520"/>
      <stop offset="1" stop-color="#0B1018"/>
    </linearGradient>
    <linearGradient id="flare" x1="58" y1="70" x2="144" y2="150" gradientUnits="userSpaceOnUse">
      <stop stop-color="#FF8B78"/>
      <stop offset="1" stop-color="#FF8B78" stop-opacity="0"/>
    </linearGradient>
  </defs>
  <rect width="320" height="320" rx="72" fill="url(#bg)"/>
  <circle cx="72" cy="74" r="72" fill="url(#flare)"/>
  <path d="M58 324C66 252 118 222 160 222C202 222 254 252 262 324H58Z" fill="#5B6CC5"/>
  <path d="M112 106C112 71.7583 139.758 44 174 44C208.242 44 236 71.7583 236 106V144C236 178.242 208.242 206 174 206C139.758 206 112 178.242 112 144V106Z" fill="#E9C5B0"/>
  <path d="M102 92C112 50 148 24 194 24C226 24 252 40 266 66C252 62 226 66 202 88C180 108 162 110 114 106L102 92Z" fill="#121925"/>
  <rect x="132" y="122" width="22" height="4" rx="2" fill="#523127"/>
  <rect x="184" y="122" width="22" height="4" rx="2" fill="#523127"/>
  <path d="M156 160C162 165.333 182 165.333 188 160" stroke="#B77664" stroke-width="4" stroke-linecap="round"/>
  <rect x="130" y="186" width="88" height="12" rx="6" fill="#121925"/>
  <rect x="140" y="188" width="68" height="8" rx="4" fill="#73CFFF"/>
</svg>
