<svg width="820" height="1040" viewBox="0 0 820 1040" fill="none" xmlns="http://www.w3.org/2000/svg">
  <defs>
    <linearGradient id="frame" x1="90" y1="46" x2="748" y2="976" gradientUnits="userSpaceOnUse">
      <stop stop-color="#1A1F2B"/>
      <stop offset="0.48" stop-color="#090C14"/>
      <stop offset="1" stop-color="#131B28"/>
    </linearGradient>
    <linearGradient id="screen" x1="118" y1="88" x2="708" y2="952" gradientUnits="userSpaceOnUse">
      <stop stop-color="#0E1320"/>
      <stop offset="0.58" stop-color="#090C14"/>
      <stop offset="1" stop-color="#070A11"/>
    </linearGradient>
    <linearGradient id="heroCard" x1="160" y1="230" x2="652" y2="560" gradientUnits="userSpaceOnUse">
      <stop stop-color="#1B2232"/>
      <stop offset="0.5" stop-color="#0E1320"/>
      <stop offset="1" stop-color="#121929"/>
    </linearGradient>
    <linearGradient id="coverGlow" x1="198" y1="246" x2="614" y2="530" gradientUnits="userSpaceOnUse">
      <stop stop-color="#7AF6D2"/>
      <stop offset="0.53" stop-color="#FF8B78"/>
      <stop offset="1" stop-color="#F7CF71"/>
    </linearGradient>
    <linearGradient id="tag" x1="0" y1="0" x2="132" y2="0" gradientUnits="userSpaceOnUse">
      <stop stop-color="#7AF6D2"/>
      <stop offset="1" stop-color="#F7CF71"/>
    </linearGradient>
    <linearGradient id="aquaBar" x1="0" y1="0" x2="0" y2="92" gradientUnits="userSpaceOnUse">
      <stop stop-color="#7AF6D2"/>
      <stop offset="1" stop-color="#163034" stop-opacity="0"/>
    </linearGradient>
    <linearGradient id="blueBar" x1="0" y1="0" x2="0" y2="126" gradientUnits="userSpaceOnUse">
      <stop stop-color="#73CFFF"/>
      <stop offset="1" stop-color="#132336" stop-opacity="0"/>
    </linearGradient>
    <filter id="blur" x="126" y="200" width="548" height="374" filterUnits="userSpaceOnUse" color-interpolation-filters="sRGB">
      <feGaussianBlur stdDeviation="34"/>
    </filter>
  </defs>

  <rect width="820" height="1040" rx="126" fill="url(#frame)"/>
  <rect x="52" y="52" width="716" height="936" rx="98" fill="#04070D"/>
  <rect x="72" y="72" width="676" height="896" rx="78" fill="url(#screen)"/>
  <rect x="332" y="92" width="156" height="24" rx="12" fill="#111927"/>

  <g filter="url(#blur)">
    <circle cx="270" cy="366" r="122" fill="#7AF6D2" fill-opacity="0.22"/>
    <circle cx="546" cy="308" r="108" fill="#FF8B78" fill-opacity="0.18"/>
  </g>

  <rect x="110" y="138" width="600" height="58" rx="29" fill="#0F1522"/>
  <circle cx="150" cy="167" r="10" fill="#7AF6D2"/>
  <text x="180" y="161" fill="#F4F1EC" font-family="Manrope, sans-serif" font-size="15" font-weight="800" letter-spacing="0.18em">NOW PLAYING</text>
  <text x="180" y="180" fill="#9BA8BC" font-family="Manrope, sans-serif" font-size="14">Afterglow Session</text>

  <rect x="110" y="224" width="600" height="328" rx="42" fill="url(#heroCard)"/>
  <circle cx="244" cy="318" r="104" fill="url(#coverGlow)" fill-opacity="0.24"/>
  <path d="M174 458C224 416 262 344 344 324C418 306 462 356 512 350C562 344 602 294 646 278" stroke="url(#coverGlow)" stroke-width="10" stroke-linecap="round"/>
  <path d="M184 490C236 454 272 420 348 408C430 394 492 426 558 410C608 398 628 370 650 346" stroke="#73CFFF" stroke-opacity="0.58" stroke-width="4" stroke-linecap="round"/>
  <text x="154" y="286" fill="#F4F1EC" font-family="Syne, sans-serif" font-size="56" font-weight="700" letter-spacing="-0.05em">Late Night</text>
  <text x="154" y="342" fill="#F4F1EC" font-family="Instrument Serif, serif" font-size="64" font-style="italic">Frequencies</text>
  <text x="154" y="382" fill="#AAB4C6" font-family="Manrope, sans-serif" font-size="20">Curated for your 20:45 mood shift</text>
  <rect x="154" y="426" width="132" height="34" rx="17" fill="url(#tag)"/>
  <text x="186" y="447" fill="#081116" font-family="Manrope, sans-serif" font-size="14" font-weight="800" letter-spacing="0.12em">SPATIAL</text>

  <rect x="110" y="586" width="600" height="134" rx="34" fill="#0B1019"/>
  <text x="144" y="632" fill="#F4F1EC" font-family="Manrope, sans-serif" font-size="16" font-weight="800" letter-spacing="0.16em">QUALITY PANEL</text>
  <text x="144" y="662" fill="#AAB4C6" font-family="Manrope, sans-serif" font-size="26" font-weight="700">24-bit / 96 kHz with live depth</text>
  <rect x="144" y="684" width="18" height="26" rx="9" fill="url(#aquaBar)"/>
  <rect x="172" y="660" width="18" height="50" rx="9" fill="url(#aquaBar)"/>
  <rect x="200" y="638" width="18" height="72" rx="9" fill="url(#aquaBar)"/>
  <rect x="228" y="648" width="18" height="62" rx="9" fill="url(#aquaBar)"/>
  <rect x="256" y="620" width="18" height="90" rx="9" fill="url(#aquaBar)"/>
  <rect x="284" y="654" width="18" height="56" rx="9" fill="url(#blueBar)"/>
  <rect x="312" y="634" width="18" height="76" rx="9" fill="url(#blueBar)"/>
  <rect x="340" y="646" width="18" height="64" rx="9" fill="url(#blueBar)"/>
  <rect x="368" y="616" width="18" height="94" rx="9" fill="url(#blueBar)"/>
  <rect x="396" y="660" width="18" height="50" rx="9" fill="url(#blueBar)"/>
  <rect x="562" y="620" width="108" height="40" rx="20" fill="#131B2A"/>
  <text x="588" y="646" fill="#7AF6D2" font-family="Manrope, sans-serif" font-size="14" font-weight="800" letter-spacing="0.12em">LOSSLESS</text>
  <text x="562" y="688" fill="#F4F1EC" font-family="Manrope, sans-serif" font-size="16" font-weight="700">Depth enabled</text>

  <rect x="110" y="752" width="600" height="170" rx="40" fill="#0B1019"/>
  <text x="144" y="796" fill="#F4F1EC" font-family="Manrope, sans-serif" font-size="16" font-weight="800" letter-spacing="0.16em">DISCOVERY</text>
  <rect x="144" y="820" width="532" height="28" rx="14" fill="#101827"/>
  <rect x="154" y="828" width="50" height="12" rx="6" fill="#7AF6D2"/>
  <text x="222" y="839" fill="#F4F1EC" font-family="Manrope, sans-serif" font-size="15" font-weight="700">Lina Vale</text>
  <text x="614" y="839" fill="#9BA8BC" font-family="Manrope, sans-serif" font-size="14">fresh radar</text>
  <rect x="144" y="858" width="532" height="28" rx="14" fill="#101827"/>
  <rect x="154" y="866" width="50" height="12" rx="6" fill="#FF8B78"/>
  <text x="222" y="877" fill="#F4F1EC" font-family="Manrope, sans-serif" font-size="15" font-weight="700">Morae</text>
  <text x="626" y="877" fill="#9BA8BC" font-family="Manrope, sans-serif" font-size="14">new soul</text>
  <rect x="144" y="896" width="532" height="28" rx="14" fill="#101827"/>
  <rect x="154" y="904" width="50" height="12" rx="6" fill="#73CFFF"/>
  <text x="222" y="915" fill="#F4F1EC" font-family="Manrope, sans-serif" font-size="15" font-weight="700">Ivo June</text>
  <text x="622" y="915" fill="#9BA8BC" font-family="Manrope, sans-serif" font-size="14">alt motion</text>
  <circle cx="210" cy="943" r="8" fill="#7AF6D2" fill-opacity="0.3"/>
  <circle cx="410" cy="943" r="8" fill="#F4F1EC"/>
  <circle cx="610" cy="943" r="8" fill="#7AF6D2" fill-opacity="0.3"/>
</svg>
